<mxfile host="app.diagrams.net" modified="2023-06-04T19:35:20.613Z" agent="Mozilla/5.0 (Windows NT 10.0; Win64; x64) AppleWebKit/537.36 (KHTML, like Gecko) Chrome/114.0.0.0 Safari/537.36" version="21.2.7" etag="1K3AqdhJsFBV6WOf5AQ8" type="github">
  <diagram name="PÃ¡gina-1" id="oKOqorsehzsUd4np1dnk">
    <mxGraphModel>
      <root>
        <mxCell id="0" />
        <mxCell id="1" parent="0" />
      </root>
    </mxGraphModel>
  </diagram>
</mxfile>
